<?xml version="1.0" encoding="UTF-8" standalone="no"?>
<!-- Created with Inkscape (http://www.inkscape.org/) -->

<svg
   xmlns:dc="http://purl.org/dc/elements/1.1/"
   xmlns:cc="http://creativecommons.org/ns#"
   xmlns:rdf="http://www.w3.org/1999/02/22-rdf-syntax-ns#"
   xmlns:svg="http://www.w3.org/2000/svg"
   xmlns="http://www.w3.org/2000/svg"
   xmlns:sodipodi="http://sodipodi.sourceforge.net/DTD/sodipodi-0.dtd"
   xmlns:inkscape="http://www.inkscape.org/namespaces/inkscape"
   width="72.30999mm"
   height="100.82049mm"
   viewBox="0 0 256.21649 357.23794"
   id="svg2"
   version="1.1"
   inkscape:version="0.91 r13725"
   sodipodi:docname="larvae.svg">
  <defs
     id="defs4" />
  <sodipodi:namedview
     id="base"
     pagecolor="#ffffff"
     bordercolor="#666666"
     borderopacity="1.0"
     inkscape:pageopacity="0.0"
     inkscape:pageshadow="2"
     inkscape:zoom="0.19860197"
     inkscape:cx="1121.6597"
     inkscape:cy="-373.59463"
     inkscape:document-units="px"
     inkscape:current-layer="layer1"
     showgrid="false"
     inkscape:window-width="1920"
     inkscape:window-height="1016"
     inkscape:window-x="0"
     inkscape:window-y="27"
     inkscape:window-maximized="1"
     objecttolerance="20"
     fit-margin-top="1"
     fit-margin-left="1"
     fit-margin-right="1"
     fit-margin-bottom="1" />
  <metadata
     id="metadata7">
    <rdf:RDF>
      <cc:Work
         rdf:about="">
        <dc:format>image/svg+xml</dc:format>
        <dc:type
           rdf:resource="http://purl.org/dc/dcmitype/StillImage" />
        <dc:title></dc:title>
      </cc:Work>
    </rdf:RDF>
  </metadata>
  <g
     inkscape:label="Capa 1"
     inkscape:groupmode="layer"
     id="layer1"
     transform="translate(-382.25317,-155.04637)">
    <path
       style="fill:#000000;fill-opacity:1;fill-rule:evenodd;stroke:none;stroke-width:12;stroke-linecap:butt;stroke-linejoin:miter;stroke-miterlimit:4;stroke-dasharray:none;stroke-opacity:1"
       d="m 385.79648,246.9931 c 0.37346,-38.24373 24.58594,-63.42507 61.7995,-62.56573 43.10055,0.99528 66.55463,25.76289 61.12838,65.63644 -9.32812,47.93462 -22.53835,50.63734 -26.13558,59.41334 -9.1964,22.85686 -13.55795,25.33547 -34.8923,28.00929 2.84636,-20.1946 2.93317,-25.98553 -10.80808,-26.86604 -15.66873,-1.00402 -16.28444,4.54524 -18.31308,24.8063 -19.47498,-7.86096 -22.70818,-15.26177 -24.46004,-35.10112 -1.07453,-14.22609 -6.24028,-7.3409 -8.3188,-53.33248 z"
       id="path4136"
       inkscape:connector-curvature="0"
       sodipodi:nodetypes="cscccsccc" />
    <path
       style="fill:none;fill-rule:evenodd;stroke:#000000;stroke-width:12;stroke-linecap:butt;stroke-linejoin:miter;stroke-miterlimit:4;stroke-dasharray:none;stroke-opacity:1"
       d="m 406.34191,185.68853 c 19.99776,-35.5082 111.12881,-21.32874 117.51052,6.82597 7.20241,36.9588 4.30275,92.27205 -1.79049,111.87073 12.20115,53.69718 5.58933,99.41941 3.30572,112.31345 35.0292,-4.21933 55.94641,-1.22559 82.72408,8.89268 22.63552,11.31225 28.04138,57.41292 10.12254,63.19942 -38.43062,14.02339 -189.51733,23.59308 -208.61167,-2.24439 -8.51599,-8.39842 -15.36557,-108.5903 -6.26636,-185.26062 -3.5277,-49.90129 -7.96004,-92.19013 3.00566,-115.59724 z"
       id="path4138"
       inkscape:connector-curvature="0"
       sodipodi:nodetypes="ccccccccc" />
    <path
       style="fill:#000000;fill-opacity:1;fill-rule:evenodd;stroke:none;stroke-width:12;stroke-linecap:butt;stroke-linejoin:miter;stroke-miterlimit:4;stroke-dasharray:none;stroke-opacity:1"
       d="m 464.22317,353.1172 c 3.76944,29.34552 11.42672,9.39946 16.54451,41.92424 7.46233,-10.14813 12.72027,-17.2318 0.13097,-44.12393 -2.08017,-4.23119 -16.85907,-5.89195 -16.67548,2.19969 z"
       id="path4168"
       inkscape:connector-curvature="0"
       sodipodi:nodetypes="cccc" />
    <path
       style="fill:#000000;fill-opacity:1;fill-rule:evenodd;stroke:none;stroke-width:12;stroke-linecap:butt;stroke-linejoin:miter;stroke-miterlimit:4;stroke-dasharray:none;stroke-opacity:1"
       d="m 466.7995,407.96603 c 3.76944,29.34552 11.42672,9.39946 16.54451,41.92424 7.46233,-10.14813 12.72027,-17.2318 0.13097,-44.12393 -2.08017,-4.23119 -16.85907,-5.89195 -16.67548,2.19969 z"
       id="path4168-3"
       inkscape:connector-curvature="0"
       sodipodi:nodetypes="cccc" />
    <path
       style="fill:#000000;fill-opacity:1;fill-rule:evenodd;stroke:none;stroke-width:12;stroke-linecap:butt;stroke-linejoin:miter;stroke-miterlimit:4;stroke-dasharray:none;stroke-opacity:1"
       d="m 425.2618,351.99134 c -3.76944,29.34552 -11.42672,9.39946 -16.54451,41.92424 -7.46233,-10.14813 -12.72027,-17.2318 -0.13097,-44.12393 2.08017,-4.23119 16.85907,-5.89195 16.67548,2.19969 z"
       id="path4168-6"
       inkscape:connector-curvature="0"
       sodipodi:nodetypes="cccc" />
    <path
       style="fill:#000000;fill-opacity:1;fill-rule:evenodd;stroke:none;stroke-width:12;stroke-linecap:butt;stroke-linejoin:miter;stroke-miterlimit:4;stroke-dasharray:none;stroke-opacity:1"
       d="m 423.57557,406.84017 c -3.76944,29.34552 -11.42672,9.39946 -16.54451,41.92424 -7.46233,-10.14813 -12.72027,-17.2318 -0.13097,-44.12393 2.08017,-4.23119 16.85907,-5.89195 16.67548,2.19969 z"
       id="path4168-3-7"
       inkscape:connector-curvature="0"
       sodipodi:nodetypes="cccc" />
    <path
       style="fill:#000000;fill-opacity:1;fill-rule:evenodd;stroke:none;stroke-width:12;stroke-linecap:butt;stroke-linejoin:miter;stroke-miterlimit:4;stroke-dasharray:none;stroke-opacity:1"
       d="m 466.56585,462.70289 c 3.76944,29.34552 11.42672,9.39946 16.54451,41.92424 7.46233,-10.14814 12.72027,-17.2318 0.13097,-44.12393 -2.08017,-4.23119 -16.85907,-5.89195 -16.67548,2.19969 z"
       id="path4168-3-3"
       inkscape:connector-curvature="0"
       sodipodi:nodetypes="cccc" />
    <path
       style="fill:#000000;fill-opacity:1;fill-rule:evenodd;stroke:none;stroke-width:12;stroke-linecap:butt;stroke-linejoin:miter;stroke-miterlimit:4;stroke-dasharray:none;stroke-opacity:1"
       d="m 423.34192,461.57703 c -3.76944,29.34552 -11.42672,9.39946 -16.54451,41.92424 -7.46233,-10.14813 -12.72027,-17.2318 -0.13097,-44.12393 2.08017,-4.23119 16.85907,-5.89195 16.67548,2.19969 z"
       id="path4168-3-7-6"
       inkscape:connector-curvature="0"
       sodipodi:nodetypes="cccc" />
  </g>
</svg>
